<svg viewBox="0 0 48 48" fill="none" xmlns="http://www.w3.org/2000/svg">
<path d="M21.0705 5.23941V19.2394C21.0705 20.3494 20.1805 21.2394 19.0705 21.2394H5.07051C3.97051 21.2394 3.07051 20.3494 3.07051 19.2394V5.23941C3.07051 4.13941 3.97051 3.23941 5.07051 3.23941H19.0705C20.1805 3.23941 21.0705 4.13941 21.0705 5.23941Z" fill="#3BB23B"/>
<path d="M36.0705 2.23941C35.5705 2.23941 35.0705 2.42941 34.6605 2.82941L26.6605 10.8294C25.8705 11.6094 25.8705 12.8694 26.6605 13.6494L34.6605 21.6494C35.4405 22.4394 36.7005 22.4394 37.4805 21.6494L45.4805 13.6494C46.2705 12.8694 46.2705 11.6094 45.4805 10.8294L37.4805 2.82941C37.0705 2.42941 36.5705 2.23941 36.0705 2.23941Z" fill="#DD6B94"/>
<path d="M13.2472 25.7656C12.5458 25.2552 11.5952 25.2552 10.8938 25.7656L2.49796 31.8746C1.79846 32.3836 1.50548 33.2846 1.77184 34.1076L4.97076 43.9923C5.23781 44.8174 6.00628 45.3765 6.87359 45.3765H17.2674C18.1347 45.3765 18.9032 44.8174 19.1702 43.9923L22.3692 34.1076C22.6355 33.2846 22.3425 32.3836 21.643 31.8746L13.2472 25.7656Z" fill="#9356DA"/>
<path d="M44.5405 30.8594L36.6405 26.4194C36.4805 26.2994 36.2805 26.2394 36.0705 26.2394C35.8605 26.2394 35.6605 26.2994 35.5005 26.4194L27.6005 30.8594C27.2805 31.0294 27.0705 31.3594 27.0705 31.7394V40.7394C27.0705 41.1194 27.2805 41.4494 27.6005 41.6194L35.5005 46.0594C35.6605 46.1794 35.8605 46.2394 36.0705 46.2394C36.2805 46.2394 36.4805 46.1794 36.6405 46.0594L44.5405 41.6194C44.8605 41.4494 45.0705 41.1194 45.0705 40.7394V31.7394C45.0705 31.3594 44.8605 31.0294 44.5405 30.8594Z" fill="#E04444"/>
</svg>
