<?xml version="1.0" standalone="no"?>
<!DOCTYPE svg PUBLIC "-//W3C//DTD SVG 20010904//EN"
 "http://www.w3.org/TR/2001/REC-SVG-20010904/DTD/svg10.dtd">
<svg version="1.0" xmlns="http://www.w3.org/2000/svg"
 width="700.000000pt" height="700.000000pt" viewBox="0 0 700.000000 700.000000"
 preserveAspectRatio="xMidYMid meet">
<metadata>
Created by potrace 1.14, written by Peter Selinger 2001-2017
</metadata>
<g transform="translate(0.000000,700.000000) scale(0.100000,-0.100000)"
fill="#000000" stroke="none">
<path d="M5218 6669 c-26 -4 -69 -19 -95 -33 -33 -18 -241 -220 -660 -639
-678 -679 -657 -653 -657 -782 -1 -127 -17 -108 672 -796 388 -387 631 -622
654 -632 80 -37 175 -38 254 -1 26 11 245 223 655 632 675 672 669 665 674
783 3 59 -15 135 -39 168 -6 8 -290 295 -631 637 -458 460 -630 626 -660 639
-58 24 -113 32 -167 24z"/>
<path d="M640 6511 c-27 -10 -67 -38 -101 -71 -97 -95 -90 -1 -90 -1226 0
-1181 -4 -1111 64 -1200 19 -26 57 -57 92 -76 l60 -33 1095 0 1095 0 53 28
c83 44 139 113 157 195 4 18 7 511 7 1095 0 1056 0 1062 -21 1117 -32 84 -105
151 -192 177 -25 7 -380 10 -1105 10 -961 0 -1074 -1 -1114 -16z"/>
<path d="M1695 3291 c-69 -19 -50 -6 -463 -309 -74 -53 -156 -113 -182 -132
-292 -210 -700 -510 -720 -530 -57 -56 -89 -143 -83 -224 3 -40 71 -266 138
-461 16 -48 202 -625 217 -675 6 -19 14 -44 19 -55 4 -11 31 -91 59 -179 28
-87 59 -175 70 -196 24 -46 80 -96 139 -124 46 -21 54 -21 862 -22 771 -1 819
0 866 18 91 34 158 110 191 218 13 44 183 570 227 705 18 55 68 208 110 340
42 132 79 247 82 255 4 8 7 17 8 20 0 3 9 30 20 60 51 151 0 290 -140 383 -43
29 -58 40 -300 217 -174 128 -199 146 -241 175 -16 11 -31 22 -34 25 -3 4 -36
28 -75 56 -69 48 -421 304 -502 364 -88 65 -189 92 -268 71z"/>
<path d="M5184 3151 c-17 -11 -60 -35 -95 -54 -56 -31 -204 -114 -309 -174
-19 -11 -190 -107 -380 -213 -190 -106 -362 -204 -382 -217 -73 -45 -70 -5
-70 -779 0 -662 1 -695 19 -726 14 -24 55 -54 153 -111 74 -43 146 -84 160
-90 14 -7 45 -24 70 -38 36 -21 296 -168 565 -319 282 -158 306 -170 344 -172
34 -1 81 23 343 169 166 94 321 181 343 193 243 136 527 297 557 316 74 47 70
7 70 779 0 612 -2 696 -16 723 -17 33 -43 54 -126 99 -30 17 -73 40 -95 53
-63 36 -445 250 -495 278 -25 14 -49 28 -55 32 -5 4 -37 22 -70 40 -33 17
-139 77 -236 131 -193 109 -231 119 -295 80z"/>
</g>
</svg>
